<?xml version="1.0" encoding="UTF-8" standalone="no"?>
<!-- Created with Inkscape (http://www.inkscape.org/) -->

<svg
   width="72mm"
   height="72mm"
   viewBox="0 0 72 72"
   version="1.1"
   id="svg873"
   xmlns="http://www.w3.org/2000/svg"
   xmlns:svg="http://www.w3.org/2000/svg">
  <defs
     id="defs870">
    <rect
       x="32.999493"
       y="41.366745"
       width="686.41278"
       height="599.15063"
       id="rect404803" />
  </defs>
  <g
     id="layer1">
    <g
       id="g941"
       transform="translate(0.84390513,-2.1530617)">
      <g
         id="layer1-3"
         transform="translate(-67.366547,-89.081001)">
        <text
           xml:space="preserve"
           transform="scale(0.26458333)"
           id="text404801"
           style="font-style:normal;font-weight:normal;font-size:40px;line-height:1.25;font-family:sans-serif;white-space:pre;shape-inside:url(#rect404803);fill:#000000;fill-opacity:1;stroke:none" />
        <g
           aria-label=" ____ |  _ \ | |_) | |  _ &lt; |_| \_\"
           id="text405997"
           style="font-size:22.5778px;line-height:0.7;letter-spacing:-4.49792px;word-spacing:0px;fill:#ff0000;stroke-width:0.264583"
           transform="translate(0.52916667,0.52916667)">
          <path
             d="m 89.595776,94.910383 v 2.25778 H 76.049095 v -2.25778 z"
             style="font-weight:bold;font-family:FreeMono;-inkscape-font-specification:'FreeMono Bold';fill:#66d9ef"
             id="path470956" />
          <path
             d="m 98.644505,94.910383 v 2.25778 H 85.097824 v -2.25778 z"
             style="font-weight:bold;font-family:FreeMono;-inkscape-font-specification:'FreeMono Bold';fill:#66d9ef"
             id="path470958" />
          <path
             d="m 107.69324,94.910383 v 2.25778 H 94.146555 v -2.25778 z"
             style="font-weight:bold;font-family:FreeMono;-inkscape-font-specification:'FreeMono Bold';fill:#66d9ef"
             id="path470960" />
          <path
             d="m 116.74196,94.910383 v 2.25778 h -13.54668 v -2.25778 z"
             style="font-weight:bold;font-family:FreeMono;-inkscape-font-specification:'FreeMono Bold';fill:#66d9ef"
             id="path470962" />
          <path
             d="m 73.773706,94.732579 q 1.12889,0 1.12889,1.490134 v 14.540107 q 0,1.49013 -1.12889,1.49013 -1.12889,0 -1.12889,-1.49013 V 96.222713 q 0,-0.722489 0.225778,-1.106312 0.248356,-0.383822 0.903112,-0.383822 z"
             style="font-weight:bold;font-family:FreeMono;-inkscape-font-specification:'FreeMono Bold';fill:#66d9ef"
             id="path470964" />
          <path
             d="m 107.69324,111.05633 v 2.25778 H 94.146555 v -2.25778 z"
             style="font-weight:bold;font-family:FreeMono;-inkscape-font-specification:'FreeMono Bold';fill:#66d9ef"
             id="path470966" />
          <path
             d="m 116.39833,94.1004 7.24747,15.30775 q 0.27094,0.54187 0.27094,0.85796 0,0.42897 -0.33867,0.74506 -0.33867,0.33867 -0.79022,0.33867 -0.4064,0 -0.65476,-0.22578 -0.24835,-0.2032 -0.51929,-0.76764 l -7.22489,-15.33033 q -0.27094,-0.541867 -0.27094,-0.835379 0,-0.428978 0.33867,-0.745067 0.33867,-0.338667 0.79022,-0.338667 0.38382,0 0.63218,0.225778 0.24836,0.2032 0.51929,0.767645 z"
             style="font-weight:bold;font-family:FreeMono;-inkscape-font-specification:'FreeMono Bold';fill:#66d9ef"
             id="path470968" />
          <path
             d="m 73.773706,110.87852 q 1.12889,0 1.12889,1.49014 v 14.5401 q 0,1.49014 -1.12889,1.49014 -1.12889,0 -1.12889,-1.49014 v -14.5401 q 0,-0.72249 0.225778,-1.10631 0.248356,-0.38383 0.903112,-0.38383 z"
             style="font-weight:bold;font-family:FreeMono;-inkscape-font-specification:'FreeMono Bold';fill:#66d9ef"
             id="path470970" />
          <path
             d="m 91.871164,110.87852 q 1.12889,0 1.12889,1.49014 v 14.5401 q 0,1.49014 -1.12889,1.49014 -1.12889,0 -1.12889,-1.49014 v -14.5401 q 0,-0.72249 0.225778,-1.10631 0.248356,-0.38383 0.903112,-0.38383 z"
             style="font-weight:bold;font-family:FreeMono;-inkscape-font-specification:'FreeMono Bold';fill:#66d9ef"
             id="path470972" />
          <path
             d="m 107.69324,127.20227 v 2.25778 H 94.146555 v -2.25778 z"
             style="font-weight:bold;font-family:FreeMono;-inkscape-font-specification:'FreeMono Bold';fill:#66d9ef"
             id="path470974" />
          <path
             d="m 105.83688,127.29259 q 0,-0.33867 0.38383,-1.06116 0.4064,-0.69991 0.88053,-1.49014 0.49671,-0.79022 0.88054,-2.19004 0.4064,-1.4224 0.4064,-3.00285 0,-3.29636 -2.28036,-6.99912 -0.27094,-0.42898 -0.27094,-0.76764 0,-0.45156 0.31609,-0.76765 0.33867,-0.33867 0.83538,-0.33867 0.72249,0 1.64818,1.44498 0.92569,1.44498 1.58045,3.58987 0.67733,2.14489 0.67733,3.90596 0,1.55787 -0.65475,3.65761 -0.63218,2.07715 -1.58045,3.58987 -0.92569,1.53529 -1.67076,1.53529 -0.49671,0 -0.83538,-0.33867 -0.31609,-0.31609 -0.31609,-0.76764 z"
             style="font-weight:bold;font-family:FreeMono;-inkscape-font-specification:'FreeMono Bold';fill:#66d9ef"
             id="path470976" />
          <path
             d="m 128.06608,110.87852 q 1.12889,0 1.12889,1.49014 v 14.5401 q 0,1.49014 -1.12889,1.49014 -1.12889,0 -1.12889,-1.49014 v -14.5401 q 0,-0.72249 0.22578,-1.10631 0.24836,-0.38383 0.90311,-0.38383 z"
             style="font-weight:bold;font-family:FreeMono;-inkscape-font-specification:'FreeMono Bold';fill:#66d9ef"
             id="path470978" />
          <path
             d="m 73.773706,127.02447 q 1.12889,0 1.12889,1.49013 v 14.54011 q 0,1.49013 -1.12889,1.49013 -1.12889,0 -1.12889,-1.49013 V 128.5146 q 0,-0.72249 0.225778,-1.10631 0.248356,-0.38382 0.903112,-0.38382 z"
             style="font-weight:bold;font-family:FreeMono;-inkscape-font-specification:'FreeMono Bold';fill:#66d9ef"
             id="path470980" />
          <path
             d="M 107.69324,143.34822 V 145.606 H 94.146555 v -2.25778 z"
             style="font-weight:bold;font-family:FreeMono;-inkscape-font-specification:'FreeMono Bold';fill:#66d9ef"
             id="path470982" />
          <path
             d="m 123.57807,129.77896 q 0.38382,0 0.65476,0.36125 0.29351,0.33866 0.29351,0.67733 0,0.58702 -0.72249,0.97085 l -5.89281,3.00284 5.89281,3.07058 q 0.72249,0.38383 0.72249,0.97085 0,0.33867 -0.29351,0.69991 -0.27094,0.33867 -0.65476,0.33867 -0.31609,0 -0.67733,-0.2032 l -9.70846,-4.89939 9.70846,-4.78649 q 0.4064,-0.2032 0.67733,-0.2032 z"
             style="font-weight:bold;font-family:FreeMono;-inkscape-font-specification:'FreeMono Bold';fill:#66d9ef"
             id="path470984" />
          <path
             d="m 73.773706,143.17041 q 1.12889,0 1.12889,1.49014 v 14.5401 q 0,1.49014 -1.12889,1.49014 -1.12889,0 -1.12889,-1.49014 v -14.5401 q 0,-0.72249 0.225778,-1.10631 0.248356,-0.38383 0.903112,-0.38383 z"
             style="font-weight:bold;font-family:FreeMono;-inkscape-font-specification:'FreeMono Bold';fill:#66d9ef"
             id="path470986" />
          <path
             d="m 89.595776,159.49416 v 2.25778 H 76.049095 v -2.25778 z"
             style="font-weight:bold;font-family:FreeMono;-inkscape-font-specification:'FreeMono Bold';fill:#66d9ef"
             id="path470988" />
          <path
             d="m 91.871164,143.17041 q 1.12889,0 1.12889,1.49014 v 14.5401 q 0,1.49014 -1.12889,1.49014 -1.12889,0 -1.12889,-1.49014 v -14.5401 q 0,-0.72249 0.225778,-1.10631 0.248356,-0.38383 0.903112,-0.38383 z"
             style="font-weight:bold;font-family:FreeMono;-inkscape-font-specification:'FreeMono Bold';fill:#66d9ef"
             id="path470990" />
          <path
             d="m 107.3496,142.53824 7.24747,15.30775 q 0.27093,0.54186 0.27093,0.85795 0,0.42898 -0.33866,0.74507 -0.33867,0.33867 -0.79023,0.33867 -0.4064,0 -0.65475,-0.22578 -0.24836,-0.2032 -0.51929,-0.76765 l -7.2249,-15.33032 q -0.27093,-0.54187 -0.27093,-0.83538 0,-0.42898 0.33867,-0.74507 0.33866,-0.33867 0.79022,-0.33867 0.38382,0 0.63218,0.22578 0.24835,0.2032 0.51929,0.76765 z"
             style="font-weight:bold;font-family:FreeMono;-inkscape-font-specification:'FreeMono Bold';fill:#66d9ef"
             id="path470992" />
          <path
             d="m 125.7907,159.49416 v 2.25778 h -13.54669 v -2.25778 z"
             style="font-weight:bold;font-family:FreeMono;-inkscape-font-specification:'FreeMono Bold';fill:#66d9ef"
             id="path470994" />
          <path
             d="m 125.44706,142.53824 7.24747,15.30775 q 0.27094,0.54186 0.27094,0.85795 0,0.42898 -0.33867,0.74507 -0.33867,0.33867 -0.79022,0.33867 -0.4064,0 -0.65476,-0.22578 -0.24836,-0.2032 -0.51929,-0.76765 l -7.2249,-15.33032 q -0.27093,-0.54187 -0.27093,-0.83538 0,-0.42898 0.33867,-0.74507 0.33867,-0.33867 0.79022,-0.33867 0.38382,0 0.63218,0.22578 0.24836,0.2032 0.51929,0.76765 z"
             style="font-weight:bold;font-family:FreeMono;-inkscape-font-specification:'FreeMono Bold';fill:#66d9ef"
             id="path470996" />
        </g>
      </g>
      <g
         id="layer6"
         transform="translate(-67.366547,-89.081001)">
        <g
           id="g471024"
           style="fill:#f92672;fill-opacity:1"
           transform="translate(-1.0583333,-1.0583333)">
          <g
             aria-label=" ____ |  _ \ | |_) | |  _ &lt; |_| \_\"
             id="text405997-5"
             style="font-size:22.5778px;line-height:0.7;letter-spacing:-4.49792px;word-spacing:0px;fill:#f92672;fill-opacity:1;stroke-width:0.264583">
            <path
               d="m 89.595776,94.910383 v 2.25778 H 76.049095 v -2.25778 z"
               style="font-weight:bold;font-family:FreeMono;-inkscape-font-specification:'FreeMono Bold';fill:#f92672;fill-opacity:1"
               id="path470956-5" />
            <path
               d="m 98.644505,94.910383 v 2.25778 H 85.097824 v -2.25778 z"
               style="font-weight:bold;font-family:FreeMono;-inkscape-font-specification:'FreeMono Bold';fill:#f92672;fill-opacity:1"
               id="path470958-4" />
            <path
               d="m 107.69324,94.910383 v 2.25778 H 94.146555 v -2.25778 z"
               style="font-weight:bold;font-family:FreeMono;-inkscape-font-specification:'FreeMono Bold';fill:#f92672;fill-opacity:1"
               id="path470960-6" />
            <path
               d="m 116.74196,94.910383 v 2.25778 h -13.54668 v -2.25778 z"
               style="font-weight:bold;font-family:FreeMono;-inkscape-font-specification:'FreeMono Bold';fill:#f92672;fill-opacity:1"
               id="path470962-3" />
            <path
               d="m 73.773706,94.732579 q 1.12889,0 1.12889,1.490134 v 14.540107 q 0,1.49013 -1.12889,1.49013 -1.12889,0 -1.12889,-1.49013 V 96.222713 q 0,-0.722489 0.225778,-1.106312 0.248356,-0.383822 0.903112,-0.383822 z"
               style="font-weight:bold;font-family:FreeMono;-inkscape-font-specification:'FreeMono Bold';fill:#f92672;fill-opacity:1"
               id="path470964-1" />
            <path
               d="m 107.69324,111.05633 v 2.25778 H 94.146555 v -2.25778 z"
               style="font-weight:bold;font-family:FreeMono;-inkscape-font-specification:'FreeMono Bold';fill:#f92672;fill-opacity:1"
               id="path470966-2" />
            <path
               d="m 116.39833,94.1004 7.24747,15.30775 q 0.27094,0.54187 0.27094,0.85796 0,0.42897 -0.33867,0.74506 -0.33867,0.33867 -0.79022,0.33867 -0.4064,0 -0.65476,-0.22578 -0.24835,-0.2032 -0.51929,-0.76764 l -7.22489,-15.33033 q -0.27094,-0.541867 -0.27094,-0.835379 0,-0.428978 0.33867,-0.745067 0.33867,-0.338667 0.79022,-0.338667 0.38382,0 0.63218,0.225778 0.24836,0.2032 0.51929,0.767645 z"
               style="font-weight:bold;font-family:FreeMono;-inkscape-font-specification:'FreeMono Bold';fill:#f92672;fill-opacity:1"
               id="path470968-0" />
            <path
               d="m 73.773706,110.87852 q 1.12889,0 1.12889,1.49014 v 14.5401 q 0,1.49014 -1.12889,1.49014 -1.12889,0 -1.12889,-1.49014 v -14.5401 q 0,-0.72249 0.225778,-1.10631 0.248356,-0.38383 0.903112,-0.38383 z"
               style="font-weight:bold;font-family:FreeMono;-inkscape-font-specification:'FreeMono Bold';fill:#f92672;fill-opacity:1"
               id="path470970-6" />
            <path
               d="m 91.871164,110.87852 q 1.12889,0 1.12889,1.49014 v 14.5401 q 0,1.49014 -1.12889,1.49014 -1.12889,0 -1.12889,-1.49014 v -14.5401 q 0,-0.72249 0.225778,-1.10631 0.248356,-0.38383 0.903112,-0.38383 z"
               style="font-weight:bold;font-family:FreeMono;-inkscape-font-specification:'FreeMono Bold';fill:#f92672;fill-opacity:1"
               id="path470972-5" />
            <path
               d="m 107.69324,127.20227 v 2.25778 H 94.146555 v -2.25778 z"
               style="font-weight:bold;font-family:FreeMono;-inkscape-font-specification:'FreeMono Bold';fill:#f92672;fill-opacity:1"
               id="path470974-1" />
            <path
               d="m 105.83688,127.29259 q 0,-0.33867 0.38383,-1.06116 0.4064,-0.69991 0.88053,-1.49014 0.49671,-0.79022 0.88054,-2.19004 0.4064,-1.4224 0.4064,-3.00285 0,-3.29636 -2.28036,-6.99912 -0.27094,-0.42898 -0.27094,-0.76764 0,-0.45156 0.31609,-0.76765 0.33867,-0.33867 0.83538,-0.33867 0.72249,0 1.64818,1.44498 0.92569,1.44498 1.58045,3.58987 0.67733,2.14489 0.67733,3.90596 0,1.55787 -0.65475,3.65761 -0.63218,2.07715 -1.58045,3.58987 -0.92569,1.53529 -1.67076,1.53529 -0.49671,0 -0.83538,-0.33867 -0.31609,-0.31609 -0.31609,-0.76764 z"
               style="font-weight:bold;font-family:FreeMono;-inkscape-font-specification:'FreeMono Bold';fill:#f92672;fill-opacity:1"
               id="path470976-9" />
            <path
               d="m 128.06608,110.87852 q 1.12889,0 1.12889,1.49014 v 14.5401 q 0,1.49014 -1.12889,1.49014 -1.12889,0 -1.12889,-1.49014 v -14.5401 q 0,-0.72249 0.22578,-1.10631 0.24836,-0.38383 0.90311,-0.38383 z"
               style="font-weight:bold;font-family:FreeMono;-inkscape-font-specification:'FreeMono Bold';fill:#f92672;fill-opacity:1"
               id="path470978-4" />
            <path
               d="m 73.773706,127.02447 q 1.12889,0 1.12889,1.49013 v 14.54011 q 0,1.49013 -1.12889,1.49013 -1.12889,0 -1.12889,-1.49013 V 128.5146 q 0,-0.72249 0.225778,-1.10631 0.248356,-0.38382 0.903112,-0.38382 z"
               style="font-weight:bold;font-family:FreeMono;-inkscape-font-specification:'FreeMono Bold';fill:#f92672;fill-opacity:1"
               id="path470980-4" />
            <path
               d="M 107.69324,143.34822 V 145.606 H 94.146555 v -2.25778 z"
               style="font-weight:bold;font-family:FreeMono;-inkscape-font-specification:'FreeMono Bold';fill:#f92672;fill-opacity:1"
               id="path470982-6" />
            <path
               d="m 123.57807,129.77896 q 0.38382,0 0.65476,0.36125 0.29351,0.33866 0.29351,0.67733 0,0.58702 -0.72249,0.97085 l -5.89281,3.00284 5.89281,3.07058 q 0.72249,0.38383 0.72249,0.97085 0,0.33867 -0.29351,0.69991 -0.27094,0.33867 -0.65476,0.33867 -0.31609,0 -0.67733,-0.2032 l -9.70846,-4.89939 9.70846,-4.78649 q 0.4064,-0.2032 0.67733,-0.2032 z"
               style="font-weight:bold;font-family:FreeMono;-inkscape-font-specification:'FreeMono Bold';fill:#f92672;fill-opacity:1"
               id="path470984-8" />
            <path
               d="m 73.773706,143.17041 q 1.12889,0 1.12889,1.49014 v 14.5401 q 0,1.49014 -1.12889,1.49014 -1.12889,0 -1.12889,-1.49014 v -14.5401 q 0,-0.72249 0.225778,-1.10631 0.248356,-0.38383 0.903112,-0.38383 z"
               style="font-weight:bold;font-family:FreeMono;-inkscape-font-specification:'FreeMono Bold';fill:#f92672;fill-opacity:1"
               id="path470986-1" />
            <path
               d="m 89.595776,159.49416 v 2.25778 H 76.049095 v -2.25778 z"
               style="font-weight:bold;font-family:FreeMono;-inkscape-font-specification:'FreeMono Bold';fill:#f92672;fill-opacity:1"
               id="path470988-0" />
            <path
               d="m 91.871164,143.17041 q 1.12889,0 1.12889,1.49014 v 14.5401 q 0,1.49014 -1.12889,1.49014 -1.12889,0 -1.12889,-1.49014 v -14.5401 q 0,-0.72249 0.225778,-1.10631 0.248356,-0.38383 0.903112,-0.38383 z"
               style="font-weight:bold;font-family:FreeMono;-inkscape-font-specification:'FreeMono Bold';fill:#f92672;fill-opacity:1"
               id="path470990-8" />
            <path
               d="m 107.3496,142.53824 7.24747,15.30775 q 0.27093,0.54186 0.27093,0.85795 0,0.42898 -0.33866,0.74507 -0.33867,0.33867 -0.79023,0.33867 -0.4064,0 -0.65475,-0.22578 -0.24836,-0.2032 -0.51929,-0.76765 l -7.2249,-15.33032 q -0.27093,-0.54187 -0.27093,-0.83538 0,-0.42898 0.33867,-0.74507 0.33866,-0.33867 0.79022,-0.33867 0.38382,0 0.63218,0.22578 0.24835,0.2032 0.51929,0.76765 z"
               style="font-weight:bold;font-family:FreeMono;-inkscape-font-specification:'FreeMono Bold';fill:#f92672;fill-opacity:1"
               id="path470992-1" />
            <path
               d="m 125.7907,159.49416 v 2.25778 h -13.54669 v -2.25778 z"
               style="font-weight:bold;font-family:FreeMono;-inkscape-font-specification:'FreeMono Bold';fill:#f92672;fill-opacity:1"
               id="path470994-2" />
            <path
               d="m 125.44706,142.53824 7.24747,15.30775 q 0.27094,0.54186 0.27094,0.85795 0,0.42898 -0.33867,0.74507 -0.33867,0.33867 -0.79022,0.33867 -0.4064,0 -0.65476,-0.22578 -0.24836,-0.2032 -0.51929,-0.76765 l -7.2249,-15.33032 q -0.27093,-0.54187 -0.27093,-0.83538 0,-0.42898 0.33867,-0.74507 0.33867,-0.33867 0.79022,-0.33867 0.38382,0 0.63218,0.22578 0.24836,0.2032 0.51929,0.76765 z"
               style="font-weight:bold;font-family:FreeMono;-inkscape-font-specification:'FreeMono Bold';fill:#f92672;fill-opacity:1"
               id="path470996-9" />
          </g>
        </g>
      </g>
    </g>
  </g>
</svg>
